<!-- Chama — melhor sequência de vitórias. -->
<svg xmlns="http://www.w3.org/2000/svg" viewBox="0 0 24 24">
  <path d="M12 21.5a6.5 6.5 0 0 0 6.5-6.5c0-4.5-3.75-6.5-4.75-10.5-1.75 1.75-2.75 3.75-2.75 5.75 0 0-1.75-1-1.75-2.75-1.75 1.75-3.75 3.75-3.75 7.5a6.5 6.5 0 0 0 6.5 6.5z" fill="currentColor" fill-opacity="0.18" />
  <path d="M12 21.5a6.5 6.5 0 0 0 6.5-6.5c0-4.5-3.75-6.5-4.75-10.5-1.75 1.75-2.75 3.75-2.75 5.75 0 0-1.75-1-1.75-2.75-1.75 1.75-3.75 3.75-3.75 7.5a6.5 6.5 0 0 0 6.5 6.5z" fill="none" stroke="currentColor" stroke-width="1.6" stroke-linecap="round" stroke-linejoin="round" />
  <path d="M12 21.5a2.75 2.75 0 0 0 2.75-2.75c0-1.75-1.5-2.75-2.75-4.5-1.25 1.75-2.75 2.75-2.75 4.5A2.75 2.75 0 0 0 12 21.5z" fill="none" stroke="currentColor" stroke-width="1.6" stroke-linecap="round" stroke-linejoin="round" />
</svg>
