<!-- Máscaras de teatro — diversidade de campeões. -->
<svg xmlns="http://www.w3.org/2000/svg" viewBox="0 0 24 24">
  <path d="M3.5 4.5h8v6.25a4 4 0 0 1-8 0z" fill="currentColor" fill-opacity="0.18" />
  <path d="M12.5 4.5h8v6.25a4 4 0 0 1-8 0z" fill="currentColor" fill-opacity="0.18" />
  <path d="M3.5 4.5h8v6.25a4 4 0 0 1-8 0z" fill="none" stroke="currentColor" stroke-width="1.6" stroke-linecap="round" stroke-linejoin="round" />
  <path d="M12.5 4.5h8v6.25a4 4 0 0 1-8 0z" fill="none" stroke="currentColor" stroke-width="1.6" stroke-linecap="round" stroke-linejoin="round" />
  <path d="M6 7.5h.01M9 7.5h.01M15 7.5h.01M18 7.5h.01" fill="none" stroke="currentColor" stroke-width="1.6" stroke-linecap="round" stroke-linejoin="round" />
  <path d="M6.25 11.5a2.5 2.5 0 0 0 3 0M15.25 11.5a2.5 2.5 0 0 1 3 0" fill="none" stroke="currentColor" stroke-width="1.6" stroke-linecap="round" stroke-linejoin="round" />
  <path d="M7.5 15.25v4.25M16.5 15.25v4.25M5.5 19.5h4M14.5 19.5h4" fill="none" stroke="currentColor" stroke-width="1.6" stroke-linecap="round" stroke-linejoin="round" />
</svg>
