<!-- Caveira — total de abates. -->
<svg xmlns="http://www.w3.org/2000/svg" viewBox="0 0 24 24">
  <path d="M12 2.5c-4.7 0-8.5 3.5-8.5 7.9 0 2.6 1.3 4.9 3.3 6.3v2.8c0 .9.7 1.5 1.5 1.5h7.4c.8 0 1.5-.6 1.5-1.5v-2.8c2-1.4 3.3-3.7 3.3-6.3 0-4.4-3.8-7.9-8.5-7.9z" fill="currentColor" fill-opacity="0.18" />
  <path d="M12 2.5c-4.7 0-8.5 3.5-8.5 7.9 0 2.6 1.3 4.9 3.3 6.3v2.8c0 .9.7 1.5 1.5 1.5h7.4c.8 0 1.5-.6 1.5-1.5v-2.8c2-1.4 3.3-3.7 3.3-6.3 0-4.4-3.8-7.9-8.5-7.9z" fill="none" stroke="currentColor" stroke-width="1.6" stroke-linecap="round" stroke-linejoin="round" />
  <circle cx="8.9" cy="10.75" r="1.75" fill="none" stroke="currentColor" stroke-width="1.6" stroke-linecap="round" stroke-linejoin="round" />
  <circle cx="15.1" cy="10.75" r="1.75" fill="none" stroke="currentColor" stroke-width="1.6" stroke-linecap="round" stroke-linejoin="round" />
  <path d="M12 14.5v2.2" fill="none" stroke="currentColor" stroke-width="1.6" stroke-linecap="round" stroke-linejoin="round" />
</svg>
